HIERARCHY
ROOT Hips
{
	OFFSET -11.592635 103.599617 -3.621297
	CHANNELS 6 Xposition Yposition Zposition Xrotation Yrotation Zrotation
	JOINT Chest
	{
		OFFSET 0.644089 13.410934 -2.426150
		CHANNELS 3 Xrotation Yrotation Zrotation
		JOINT Chest2
		{
			OFFSET 5.461357 20.039253 5.260102
			CHANNELS 3 Xrotation Yrotation Zrotation
			JOINT Chest3
			{
				OFFSET 2.790704 14.642044 0.801450
				CHANNELS 3 Xrotation Yrotation Zrotation
				JOINT Neck
				{
					OFFSET 1.217833 17.095108 2.211345
					CHANNELS 3 Xrotation Yrotation Zrotation
					JOINT Head
					{
						OFFSET -2.664945 9.863586 2.331379
						CHANNELS 3 Xrotation Yrotation Zrotation
						End Site
						{
							OFFSET -2.656634 9.882156 2.261190
						}
					}
				}
				JOINT LeftCollar
				{
					OFFSET 5.789746 12.579773 3.167423
					CHANNELS 3 Xrotation Yrotation Zrotation
					JOINT LeftUpArm
					{
						OFFSET 13.826621 2.412170 -10.559612
						CHANNELS 3 Xrotation Yrotation Zrotation
						JOINT LeftLowArm
						{
							OFFSET 33.690353 0.596252 -2.081512
							CHANNELS 3 Xrotation Yrotation Zrotation
							JOINT LeftHand
							{
								OFFSET 8.056931 -17.731979 22.838791
								CHANNELS 3 Xrotation Yrotation Zrotation
								End Site
								{
									OFFSET 1.760895 -3.875443 4.991537
								}
							}
						}
					}
				}
				JOINT RightCollar
				{
					OFFSET -2.239110 12.826813 5.680496
					CHANNELS 3 Xrotation Yrotation Zrotation
					JOINT RightUpArm
					{
						OFFSET -17.496368 -1.377396 -0.690094
						CHANNELS 3 Xrotation Yrotation Zrotation
						JOINT RightLowArm
						{
							OFFSET -30.958385 -6.558731 11.759940
							CHANNELS 3 Xrotation Yrotation Zrotation
							JOINT RightHand
							{
								OFFSET -5.920818 -14.961960 25.338478
								CHANNELS 3 Xrotation Yrotation Zrotation
								End Site
								{
									OFFSET -1.294060 -3.270111 5.537960
								}
							}
						}
					}
				}
			}
		}
	}
	JOINT LeftUpLeg
	{
		OFFSET 9.907351 -0.715462 -1.323501
		CHANNELS 3 Xrotation Yrotation Zrotation
		JOINT LeftLowLeg
		{
			OFFSET 31.039944 9.563705 34.482544
			CHANNELS 3 Xrotation Yrotation Zrotation
			JOINT LeftFoot
			{
				OFFSET 1.031660 -27.124695 35.549316
				CHANNELS 3 Xrotation Yrotation Zrotation
				JOINT LeftToe
				{
					OFFSET 10.545326 3.238701 20.925255
					CHANNELS 3 Xrotation Yrotation Zrotation
					End Site
					{
						OFFSET 11.317806 16.678932 12.380608
					}
				}
			}
		}
	}
	JOINT RightUpLeg
	{
		OFFSET -9.907363 0.715271 1.323536
		CHANNELS 3 Xrotation Yrotation Zrotation
		JOINT RightLowLeg
		{
			OFFSET 0.369535 -45.238747 14.047497
			CHANNELS 3 Xrotation Yrotation Zrotation
			JOINT RightFoot
			{
				OFFSET 9.511599 -39.551498 -18.595394
				CHANNELS 3 Xrotation Yrotation Zrotation
				JOINT RightToe
				{
					OFFSET -4.917179 -16.955690 15.744292
					CHANNELS 3 Xrotation Yrotation Zrotation
					End Site
					{
						OFFSET -11.092939 -3.101701 20.661129
					}
				}
			}
		}
	}
}
MOTION
Frames: 8
Frame Time: 0.033333
-0.348362 105.381508 -1.111717 18.554947 -9.745903 3.691855 -25.062059 -0.425470 16.750083 7.344776 1.579856 -3.375134 -2.582392 -7.434978 -11.518336 -4.989398 22.346031 -11.878807 -0.000002 0.000000 -0.000002 -1.648809 8.569576 -30.181827 0.336322 0.936089 -54.693126 -11.639051 34.447789 47.556473 0.000008 0.000001 0.000001 10.526636 -8.329096 14.468332 23.210402 18.395305 42.039145 -3.451333 -17.616472 -26.334650 -0.000002 -0.000001 0.000002 62.965410 -39.291756 -42.592141 -45.452655 26.474913 33.007569 -4.903177 -33.001985 26.287436 0.000002 0.000000 0.000001 -2.704635 1.042353 -3.613132 -23.502169 -3.763276 -14.961388 3.750286 35.075897 11.214666 0.000002 -0.000001 -0.000000 
-0.352309 105.382011 -1.114624 18.704143 -9.708399 3.699782 -24.890336 -0.442290 16.732860 7.165888 1.687273 -3.401134 -2.353056 -7.456082 -11.504489 -5.531993 22.465063 -11.720700 -0.000002 0.000000 -0.000002 -1.481882 8.731429 -30.246369 0.259817 0.221298 -54.730292 -11.546594 34.243529 47.971656 0.000005 0.000007 -0.000003 10.695485 -8.517954 14.572323 23.112573 18.980305 41.757263 -3.583184 -17.239073 -26.709779 -0.000001 0.000003 -0.000003 62.805338 -39.272457 -42.594467 -45.516961 26.368948 33.099015 -5.011784 -32.861416 26.157266 -0.000001 -0.000001 -0.000000 -2.402809 0.997402 -3.703302 -24.048152 -3.858793 -14.837000 3.974533 35.236171 11.155221 0.000001 0.000003 -0.000001 
-0.360758 105.373070 -1.116255 19.040693 -9.771590 3.716553 -25.006403 -0.440345 16.714629 7.192243 1.718541 -3.423588 -2.380384 -7.090725 -11.407306 -5.119626 22.337971 -11.704177 -0.000001 0.000002 -0.000001 -1.248180 7.893329 -30.163464 0.294969 0.080866 -54.942168 -11.544996 33.827963 48.255246 0.000005 -0.000001 0.000002 10.618244 -8.796347 14.280992 23.321985 19.064310 41.871399 -3.562416 -16.726660 -26.705937 -0.000002 0.000001 0.000001 62.759719 -39.198647 -42.577432 -45.468959 26.346944 33.073603 -4.859089 -32.848326 26.211978 -0.000001 -0.000000 -0.000001 -2.243064 1.008201 -3.666954 -24.134036 -3.887168 -14.888465 3.791847 35.346670 11.204771 0.000001 -0.000001 0.000002 
-0.369477 105.365799 -1.116207 19.028405 -9.907219 3.750663 -24.672761 -0.441777 16.641488 6.486404 1.871010 -3.266040 -1.976696 -7.231614 -11.490542 -5.210736 22.476973 -11.818597 -0.000002 -0.000000 0.000001 -1.346732 8.846820 -29.865917 0.343223 0.340219 -54.985652 -11.200239 34.444357 47.597693 0.000006 0.000004 -0.000000 10.587335 -8.523557 14.065378 23.220454 19.201830 41.831132 -3.328676 -16.811162 -26.451644 -0.000003 -0.000002 0.000003 63.065479 -39.252448 -42.586786 -45.811021 26.109737 33.092444 -4.264327 -32.650917 26.175443 0.000001 -0.000000 0.000000 -1.522016 0.909235 -3.776241 -25.038599 -4.081019 -14.808815 4.394173 35.571864 11.103210 0.000001 -0.000003 0.000001 
-0.380134 105.363853 -1.119895 19.019881 -9.899370 3.701137 -24.519495 -0.458338 16.666982 6.672016 1.821476 -3.293962 -2.030473 -7.229252 -11.504310 -5.632400 22.499847 -11.669110 -0.000002 0.000001 -0.000001 -1.300677 8.502231 -29.938519 0.387624 0.363599 -54.953636 -11.243539 34.232925 47.730223 0.000006 -0.000001 0.000003 10.653265 -8.476190 14.167573 23.096585 19.397413 41.634023 -3.341049 -16.708750 -26.465480 -0.000001 0.000000 0.000001 62.726586 -39.111176 -42.492792 -45.289331 26.462776 32.998754 -4.487839 -32.798131 26.226861 -0.000003 -0.000000 0.000000 -2.007335 1.026372 -3.601601 -24.341112 -3.875265 -14.916150 4.346873 35.317750 11.058646 0.000001 -0.000001 0.000001 
-0.393049 105.359390 -1.123131 19.424290 -9.803920 3.659506 -25.281102 -0.457708 16.833565 7.316038 1.553151 -3.298184 -2.416499 -7.380719 -11.637663 -6.048324 22.564759 -11.608183 -0.000001 0.000000 -0.000001 -1.311265 8.725955 -29.852933 0.346049 0.336877 -55.095711 -11.430040 34.340477 47.977045 0.000005 0.000003 0.000001 10.701551 -8.134975 14.087161 23.033394 19.551555 41.672494 -3.333856 -17.025544 -26.565971 0.000000 -0.000003 -0.000000 62.432860 -39.001780 -42.423391 -45.171490 26.451323 32.964197 -4.615927 -32.542686 25.980971 0.000002 0.000000 0.000001 -2.452836 1.100034 -3.525873 -24.463036 -3.888336 -14.803465 4.164453 35.033679 11.002194 0.000002 -0.000003 0.000003 
-0.408325 105.354904 -1.124257 19.302243 -9.780272 3.589250 -25.240430 -0.484521 16.898960 7.051523 1.677504 -3.321182 -2.162440 -7.204104 -11.596506 -5.863393 22.379193 -11.615197 -0.000001 0.000000 -0.000002 -1.380160 9.344062 -29.817153 0.156851 -0.158906 -55.040731 -11.190808 35.351956 47.787190 0.000006 -0.000000 0.000001 10.605901 -8.814305 14.282802 22.931525 19.655690 41.584138 -3.269650 -17.441822 -26.608336 0.000003 -0.000001 0.000001 62.533182 -38.913329 -42.394472 -45.369627 26.389254 32.990674 -4.630543 -32.801881 26.222568 -0.000001 -0.000001 -0.000002 -1.726466 1.021096 -3.605466 -25.368514 -4.144034 -14.722594 4.093635 35.337466 11.089145 -0.000000 -0.000003 0.000001 
-0.424804 105.352921 -1.125375 18.969940 -9.873001 3.559110 -24.846616 -0.474394 16.798661 6.337081 1.869789 -3.211697 -1.704915 -7.185685 -11.594341 -5.565142 22.320628 -11.741147 -0.000002 0.000002 0.000000 -1.433564 9.096976 -29.688087 0.321331 0.416596 -55.195165 -11.222328 34.975937 47.681117 0.000005 0.000000 0.000003 10.452103 -9.172686 14.284722 22.919502 19.464779 41.627332 -2.910739 -17.677860 -26.217999 -0.000004 0.000002 -0.000000 63.020680 -38.853920 -42.380023 -45.597636 26.079745 32.912192 -4.616342 -32.522885 26.012750 0.000002 -0.000002 0.000002 -1.226324 0.965104 -3.610171 -25.607202 -4.211649 -14.748219 4.578358 35.309605 10.897413 0.000002 -0.000003 0.000001 
